<mxfile host="app.diagrams.net" modified="2021-10-22T06:22:40.831Z" agent="5.0 (Macintosh)" etag="eTXYA7hs2G3d7BXWg1ze" version="15.5.4" type="github">
  <diagram id="HeYJVhMxeuNHTrxOxWVC" name="Page-1">
    <mxGraphModel dx="946" dy="542" grid="1" gridSize="10" guides="1" tooltips="1" connect="1" arrows="1" fold="1" page="1" pageScale="1" pageWidth="850" pageHeight="1100" math="0" shadow="0">
      <root>
        <mxCell id="0" />
        <mxCell id="1" parent="0" />
        <mxCell id="fijMDHbz_nYb8KfUin1i-4" value="&lt;div&gt;&lt;br&gt;&lt;/div&gt;&lt;div&gt;&lt;br&gt;&lt;/div&gt;&lt;div&gt;&lt;br&gt;&lt;/div&gt;&lt;div&gt;&lt;br&gt;&lt;/div&gt;" style="rounded=0;whiteSpace=wrap;html=1;" parent="1" vertex="1">
          <mxGeometry x="184" y="65" width="50" height="59" as="geometry" />
        </mxCell>
        <mxCell id="fijMDHbz_nYb8KfUin1i-5" value="Articles" style="text;html=1;strokeColor=none;fillColor=none;align=center;verticalAlign=middle;whiteSpace=wrap;rounded=0;fontSize=14;" parent="1" vertex="1">
          <mxGeometry x="192" y="41" width="40" height="20" as="geometry" />
        </mxCell>
        <mxCell id="fijMDHbz_nYb8KfUin1i-6" value="Concepts" style="text;html=1;strokeColor=none;fillColor=none;align=center;verticalAlign=middle;whiteSpace=wrap;rounded=0;fontSize=14;" parent="1" vertex="1">
          <mxGeometry x="197" y="150" width="40" height="20" as="geometry" />
        </mxCell>
        <mxCell id="fijMDHbz_nYb8KfUin1i-11" value="" style="rounded=0;whiteSpace=wrap;html=1;fontSize=14;" parent="1" vertex="1">
          <mxGeometry x="157" y="170" width="30" height="20" as="geometry" />
        </mxCell>
        <mxCell id="fijMDHbz_nYb8KfUin1i-18" value="..." style="text;html=1;strokeColor=none;fillColor=none;align=center;verticalAlign=middle;whiteSpace=wrap;rounded=0;fontSize=14;" parent="1" vertex="1">
          <mxGeometry x="230" y="178" width="40" height="20" as="geometry" />
        </mxCell>
        <mxCell id="fijMDHbz_nYb8KfUin1i-26" value="" style="endArrow=classic;html=1;fontSize=15;" parent="1" edge="1">
          <mxGeometry width="50" height="50" relative="1" as="geometry">
            <mxPoint x="278" y="94" as="sourcePoint" />
            <mxPoint x="426" y="94" as="targetPoint" />
          </mxGeometry>
        </mxCell>
        <mxCell id="fijMDHbz_nYb8KfUin1i-27" value="top words" style="text;html=1;strokeColor=none;fillColor=none;align=center;verticalAlign=middle;whiteSpace=wrap;rounded=0;fontSize=14;" parent="1" vertex="1">
          <mxGeometry x="308" y="67" width="100" height="20" as="geometry" />
        </mxCell>
        <mxCell id="fijMDHbz_nYb8KfUin1i-28" value="x&lt;sub&gt;1&lt;/sub&gt;, x&lt;sub&gt;2&lt;/sub&gt;, ..., x&lt;sub&gt;n&lt;/sub&gt;" style="text;html=1;strokeColor=none;fillColor=none;align=center;verticalAlign=middle;whiteSpace=wrap;rounded=0;fontSize=14;" parent="1" vertex="1">
          <mxGeometry x="418" y="84" width="140" height="20" as="geometry" />
        </mxCell>
        <mxCell id="fijMDHbz_nYb8KfUin1i-29" value="" style="endArrow=classic;html=1;fontSize=14;strokeWidth=1;" parent="1" edge="1">
          <mxGeometry width="50" height="50" relative="1" as="geometry">
            <mxPoint x="480" y="143" as="sourcePoint" />
            <mxPoint x="480" y="171" as="targetPoint" />
            <Array as="points">
              <mxPoint x="480" y="171" />
              <mxPoint x="480" y="153" />
            </Array>
          </mxGeometry>
        </mxCell>
        <mxCell id="fijMDHbz_nYb8KfUin1i-30" value="SBERT encoding" style="text;html=1;strokeColor=none;fillColor=none;align=center;verticalAlign=middle;whiteSpace=wrap;rounded=0;fontSize=14;" parent="1" vertex="1">
          <mxGeometry x="391" y="123" width="190" height="20" as="geometry" />
        </mxCell>
        <mxCell id="fijMDHbz_nYb8KfUin1i-32" value="" style="endArrow=none;html=1;fontSize=14;strokeWidth=1;" parent="1" edge="1">
          <mxGeometry width="50" height="50" relative="1" as="geometry">
            <mxPoint x="480" y="121" as="sourcePoint" />
            <mxPoint x="480" y="104" as="targetPoint" />
          </mxGeometry>
        </mxCell>
        <mxCell id="fijMDHbz_nYb8KfUin1i-56" value="fully-connected network" style="text;html=1;strokeColor=none;fillColor=none;align=center;verticalAlign=middle;whiteSpace=wrap;rounded=0;fontSize=14;" parent="1" vertex="1">
          <mxGeometry x="393" y="170" width="190" height="20" as="geometry" />
        </mxCell>
        <mxCell id="fijMDHbz_nYb8KfUin1i-59" value="" style="endArrow=classic;html=1;fontSize=15;" parent="1" edge="1">
          <mxGeometry width="50" height="50" relative="1" as="geometry">
            <mxPoint x="310" y="180" as="sourcePoint" />
            <mxPoint x="408" y="180" as="targetPoint" />
          </mxGeometry>
        </mxCell>
        <mxCell id="fijMDHbz_nYb8KfUin1i-61" value="Training" style="text;html=1;strokeColor=none;fillColor=none;align=center;verticalAlign=middle;whiteSpace=wrap;rounded=0;fontSize=15;fontStyle=1" parent="1" vertex="1">
          <mxGeometry x="192" y="10" width="40" height="20" as="geometry" />
        </mxCell>
        <mxCell id="fijMDHbz_nYb8KfUin1i-62" value="Inference" style="text;html=1;strokeColor=none;fillColor=none;align=center;verticalAlign=middle;whiteSpace=wrap;rounded=0;fontSize=15;fontStyle=1" parent="1" vertex="1">
          <mxGeometry x="638" y="10" width="40" height="20" as="geometry" />
        </mxCell>
        <mxCell id="fijMDHbz_nYb8KfUin1i-63" value="" style="rounded=0;whiteSpace=wrap;html=1;fontSize=14;" parent="1" vertex="1">
          <mxGeometry x="654" y="77.5" width="77" height="32.5" as="geometry" />
        </mxCell>
        <mxCell id="fijMDHbz_nYb8KfUin1i-64" value="" style="endArrow=classic;html=1;fontSize=14;strokeWidth=1;exitX=0;exitY=0.5;exitDx=0;exitDy=0;" parent="1" edge="1" source="fijMDHbz_nYb8KfUin1i-63">
          <mxGeometry width="50" height="50" relative="1" as="geometry">
            <mxPoint x="649" y="94" as="sourcePoint" />
            <mxPoint x="539" y="93.5" as="targetPoint" />
          </mxGeometry>
        </mxCell>
        <mxCell id="fijMDHbz_nYb8KfUin1i-65" value="topic model" style="text;html=1;strokeColor=none;fillColor=none;align=center;verticalAlign=middle;whiteSpace=wrap;rounded=0;fontSize=14;" parent="1" vertex="1">
          <mxGeometry x="664" y="85" width="57" height="20" as="geometry" />
        </mxCell>
        <mxCell id="fijMDHbz_nYb8KfUin1i-67" value="" style="endArrow=classic;html=1;fontSize=14;strokeWidth=1;" parent="1" edge="1">
          <mxGeometry width="50" height="50" relative="1" as="geometry">
            <mxPoint x="480" y="188" as="sourcePoint" />
            <mxPoint x="480" y="216" as="targetPoint" />
            <Array as="points">
              <mxPoint x="480" y="216" />
              <mxPoint x="480" y="198" />
            </Array>
          </mxGeometry>
        </mxCell>
        <mxCell id="fijMDHbz_nYb8KfUin1i-68" value="predicted concepts" style="text;html=1;strokeColor=none;fillColor=none;align=center;verticalAlign=middle;whiteSpace=wrap;rounded=0;fontSize=14;" parent="1" vertex="1">
          <mxGeometry x="423" y="217" width="130" height="20" as="geometry" />
        </mxCell>
        <mxCell id="fijMDHbz_nYb8KfUin1i-77" value="&lt;div&gt;&lt;br&gt;&lt;/div&gt;&lt;div&gt;&lt;br&gt;&lt;/div&gt;&lt;div&gt;&lt;br&gt;&lt;/div&gt;&lt;div&gt;&lt;br&gt;&lt;/div&gt;" style="rounded=0;whiteSpace=wrap;html=1;" parent="1" vertex="1">
          <mxGeometry x="194" y="75" width="50" height="59" as="geometry" />
        </mxCell>
        <mxCell id="fijMDHbz_nYb8KfUin1i-78" value="&lt;div&gt;&lt;br&gt;&lt;/div&gt;&lt;div&gt;&lt;br&gt;&lt;/div&gt;&lt;div&gt;&lt;br&gt;&lt;/div&gt;&lt;div&gt;&lt;br&gt;&lt;/div&gt;" style="rounded=0;whiteSpace=wrap;html=1;" parent="1" vertex="1">
          <mxGeometry x="205" y="85" width="50" height="59" as="geometry" />
        </mxCell>
        <mxCell id="fijMDHbz_nYb8KfUin1i-83" value="&lt;div&gt;&lt;i&gt;i&lt;/i&gt;-hot &lt;br&gt;&lt;/div&gt;&lt;div&gt;encoding&lt;/div&gt;" style="text;html=1;strokeColor=none;fillColor=none;align=center;verticalAlign=middle;whiteSpace=wrap;rounded=0;fontSize=14;" parent="1" vertex="1">
          <mxGeometry x="304" y="150" width="100" height="20" as="geometry" />
        </mxCell>
        <mxCell id="fijMDHbz_nYb8KfUin1i-84" value="topic words" style="text;html=1;strokeColor=none;fillColor=none;align=center;verticalAlign=middle;whiteSpace=wrap;rounded=0;fontSize=14;" parent="1" vertex="1">
          <mxGeometry x="554" y="67" width="100" height="20" as="geometry" />
        </mxCell>
        <mxCell id="fijMDHbz_nYb8KfUin1i-86" value="" style="rounded=0;whiteSpace=wrap;html=1;fontSize=14;" parent="1" vertex="1">
          <mxGeometry x="160" y="174" width="30" height="20" as="geometry" />
        </mxCell>
        <mxCell id="fijMDHbz_nYb8KfUin1i-88" value="" style="rounded=0;whiteSpace=wrap;html=1;fontSize=14;" parent="1" vertex="1">
          <mxGeometry x="163" y="178" width="30" height="20" as="geometry" />
        </mxCell>
        <mxCell id="fijMDHbz_nYb8KfUin1i-92" value="" style="rounded=0;whiteSpace=wrap;html=1;fontSize=14;" parent="1" vertex="1">
          <mxGeometry x="202" y="170" width="30" height="20" as="geometry" />
        </mxCell>
        <mxCell id="fijMDHbz_nYb8KfUin1i-93" value="" style="rounded=0;whiteSpace=wrap;html=1;fontSize=14;" parent="1" vertex="1">
          <mxGeometry x="205" y="174" width="30" height="20" as="geometry" />
        </mxCell>
        <mxCell id="fijMDHbz_nYb8KfUin1i-94" value="" style="rounded=0;whiteSpace=wrap;html=1;fontSize=14;" parent="1" vertex="1">
          <mxGeometry x="208" y="178" width="30" height="20" as="geometry" />
        </mxCell>
        <mxCell id="fijMDHbz_nYb8KfUin1i-95" value="" style="rounded=0;whiteSpace=wrap;html=1;fontSize=14;" parent="1" vertex="1">
          <mxGeometry x="262" y="170" width="30" height="20" as="geometry" />
        </mxCell>
        <mxCell id="fijMDHbz_nYb8KfUin1i-96" value="" style="rounded=0;whiteSpace=wrap;html=1;fontSize=14;" parent="1" vertex="1">
          <mxGeometry x="265" y="174" width="30" height="20" as="geometry" />
        </mxCell>
        <mxCell id="fijMDHbz_nYb8KfUin1i-97" value="" style="rounded=0;whiteSpace=wrap;html=1;fontSize=14;" parent="1" vertex="1">
          <mxGeometry x="268" y="178" width="30" height="20" as="geometry" />
        </mxCell>
        <mxCell id="fijMDHbz_nYb8KfUin1i-12" value="c&lt;sub&gt;1&lt;/sub&gt;" style="text;html=1;strokeColor=none;fillColor=none;align=center;verticalAlign=middle;whiteSpace=wrap;rounded=0;fontSize=14;" parent="1" vertex="1">
          <mxGeometry x="159" y="178" width="40" height="20" as="geometry" />
        </mxCell>
        <mxCell id="fijMDHbz_nYb8KfUin1i-13" value="c&lt;sub&gt;2&lt;/sub&gt;" style="text;html=1;strokeColor=none;fillColor=none;align=center;verticalAlign=middle;whiteSpace=wrap;rounded=0;fontSize=14;" parent="1" vertex="1">
          <mxGeometry x="204" y="178" width="40" height="20" as="geometry" />
        </mxCell>
        <mxCell id="fijMDHbz_nYb8KfUin1i-17" value="c&lt;sub&gt;i&lt;/sub&gt;" style="text;html=1;strokeColor=none;fillColor=none;align=center;verticalAlign=middle;whiteSpace=wrap;rounded=0;fontSize=14;" parent="1" vertex="1">
          <mxGeometry x="260.5" y="176.5" width="45" height="23" as="geometry" />
        </mxCell>
      </root>
    </mxGraphModel>
  </diagram>
</mxfile>
